HIERARCHY
ROOT Hips
{
  OFFSET 0 0 0
  CHANNELS 6 Xposition Yposition Zposition Zrotation Yrotation Xrotation
  JOINT LeftThigh
  {
    OFFSET 8.409438 0 -5.917753
    CHANNELS 3 Zrotation Yrotation Xrotation
    JOINT LeftLeg
    {
      OFFSET 0 0 -42.358652
      CHANNELS 3 Zrotation Yrotation Xrotation
      JOINT LeftFoot
      {
        OFFSET 0 0 -39.357303
        CHANNELS 3 Zrotation Yrotation Xrotation
      }
    }
  }
  JOINT RightThigh
  {
    OFFSET -8.409438 0 -5.917753
    CHANNELS 3 Zrotation Yrotation Xrotation
    JOINT RightLeg
    {
      OFFSET 0 0 -42.358652
      CHANNELS 3 Zrotation Yrotation Xrotation
      JOINT RightFoot
      {
        OFFSET 0 0 -39.357303
        CHANNELS 3 Zrotation Yrotation Xrotation
      }
    }
  }
  JOINT SpineLow
  {
    OFFSET 0 0 4.719101
    CHANNELS 3 Zrotation Yrotation Xrotation
    JOINT SpineMid
    {
      OFFSET 0 0 12.899191
      CHANNELS 3 Zrotation Yrotation Xrotation
      JOINT Chest
      {
        OFFSET 0 0 12.899191
        CHANNELS 3 Zrotation Yrotation Xrotation
        JOINT LeftShoulder
        {
          OFFSET 7.550562 1.41573 9.438202
          CHANNELS 3 Zrotation Yrotation Xrotation
          JOINT LeftArm
          {
            OFFSET 9.155056 0 4.247191
            CHANNELS 3 Zrotation Yrotation Xrotation
            JOINT LeftForearm
            {
              OFFSET 0 0 25.771955
              CHANNELS 3 Zrotation Yrotation Xrotation
              JOINT LeftHand
              {
                OFFSET 0 0 25.197169
                CHANNELS 3 Zrotation Yrotation Xrotation
              }
            }
          }
        }
        JOINT RightShoulder
        {
          OFFSET -7.550562 1.41573 9.438202
          CHANNELS 3 Zrotation Yrotation Xrotation
          JOINT RightArm
          {
            OFFSET -9.155056 0 4.247191
            CHANNELS 3 Zrotation Yrotation Xrotation
            JOINT RightForearm
            {
              OFFSET 0 0 -25.771955
              CHANNELS 3 Zrotation Yrotation Xrotation
              JOINT RightHand
              {
                OFFSET 0 0 -25.197169
                CHANNELS 3 Zrotation Yrotation Xrotation
              }
            }
          }
        }
        JOINT Neck
        {
          OFFSET 0 0 15.101124
          CHANNELS 3 Zrotation Yrotation Xrotation
          JOINT Head
          {
            OFFSET 0 0 11.325843
            CHANNELS 3 Zrotation Yrotation Xrotation
            End Site
            {
              OFFSET 0 0 14.157303
            }
          }
        }
      }
    }
  }
}
MOTION
Frames: 8
Frame Time: 0.0
0.0  101.685394  0.0  -2.90215  -26.536084  -97.991584  26.364704  -32.770172  -35.808235  6.061507  17.939745  62.13992  -3.15895  4.45176  1.120464  -11.219779  22.098936  -0.880735  3.900863  6.6842  33.690863  3.973766  5.078632  -8.796226  -0.156012  1.391816  3.295167  -0.236211  3.817502  9.007217  -0.236211  3.817502  9.007217  -7.231085  16.47533  0.918291  -125.185117  62.400488  -82.267238  -20.760331  -16.732398  98.664481  104.654089  29.792834  -16.798693  7.061237  -13.310697  13.348983  80.781277  25.914674  37.138984  -19.44695  13.856149  -91.151721  55.919086  0.401262  14.041086  5.094695  -5.534476  -5.684578  3.766812  -4.198969  -4.214198  
0.0  101.685394  0.0  -2.80619  -26.233449  -97.979872  26.337835  -32.470632  -35.772982  5.956994  17.657439  61.989931  -3.285876  4.51845  1.192237  -10.542005  22.092103  -0.601327  3.165926  6.666887  33.616887  3.795449  5.102841  -8.703953  -0.207827  1.362712  3.237866  -0.384908  3.744948  8.847318  -0.384908  3.744948  8.847318  -6.85456  16.659477  1.312454  -125.912834  62.496996  -82.708707  -20.93954  -16.612262  99.009356  104.418283  29.66594  -16.766742  7.219393  -13.242777  13.540949  80.97295  25.98142  37.062857  -19.899155  14.350533  -91.044043  55.930769  0.416227  14.261858  5.17698  -5.434544  -5.592641  3.830337  -4.123992  -4.145528  
0.0  101.685394  0.0  -2.725989  -25.627374  -97.836666  25.834384  -32.098231  -35.874151  5.970621  17.358875  61.91978  -3.378159  4.603219  1.24545  -10.304344  22.135763  -0.557917  2.417378  6.683867  33.610847  3.713268  5.086216  -8.626709  -0.287185  1.317443  3.172218  -0.611265  3.631581  8.663177  -0.611265  3.631582  8.663178  -6.494122  16.939434  1.647734  -126.934036  62.654038  -83.024033  -21.128172  -16.495501  99.077422  104.161283  29.594464  -16.869691  7.201681  -13.150409  13.708063  81.355614  25.98507  37.067778  -20.315375  14.716491  -90.910687  55.846856  0.424461  14.391289  5.125595  -5.29375  -5.501317  3.794051  -4.017125  -4.07888  
0.0  101.685394  0.0  -2.6521  -25.260524  -97.803185  25.497663  -31.889714  -35.81569  6.037117  17.214895  61.796139  -3.417735  4.64852  1.302507  -10.142433  22.221919  -0.53491  1.858867  6.733276  33.623884  3.805334  5.013563  -8.548956  -0.338921  1.273387  3.137711  -0.76013  3.517825  8.566019  -0.76013  3.517825  8.56602  -6.225545  17.14133  1.836845  -127.86078  62.631994  -83.588294  -21.301669  -16.201661  99.254165  103.937008  29.575398  -17.017109  7.517261  -13.008359  13.837715  81.522102  26.045273  36.989372  -20.66666  14.929651  -90.779121  55.833441  0.460413  14.478674  5.134972  -5.127734  -5.426222  3.803377  -3.892039  -4.024099  
0.0  101.685394  0.0  -2.621572  -24.827257  -97.736212  24.890457  -31.764028  -35.762049  6.219598  17.156688  61.673117  -3.316973  4.719253  1.39707  -10.346314  22.391669  -0.637846  1.907074  6.733138  33.630804  3.740861  4.74193  -8.455274  -0.376634  1.223699  3.123668  -0.870237  3.386984  8.5258  -0.870237  3.386984  8.5258  -6.248219  17.211031  1.901355  -128.915874  62.708835  -84.012635  -21.56489  -16.164276  99.040164  103.260898  27.574748  -16.744339  7.717588  -12.9351  13.875047  81.664278  26.125972  36.976712  -20.870666  15.143978  -90.648956  55.848016  0.535373  14.573861  5.045989  -4.974681  -5.394727  3.738448  -3.776167  -4.00266  
0.0  101.685394  0.0  -2.602648  -24.521871  -97.6933  24.456535  -31.749268  -35.6433  6.39241  17.279605  61.500203  -3.188266  4.743164  1.458578  -10.885223  22.646519  -0.852127  1.87135  6.645076  33.589979  3.985972  4.663521  -8.385723  -0.390957  1.169414  3.100071  -0.917472  3.240442  8.460807  -0.917472  3.240442  8.460807  -6.176267  17.353139  2.068037  -129.784074  62.652254  -84.551658  -21.739905  -15.990655  99.075443  103.146221  27.606661  -16.808388  7.966683  -12.848309  14.068141  81.646147  26.284014  36.949565  -20.9736  15.367089  -90.497894  55.932758  0.585457  14.637223  4.966122  -4.814903  -5.293372  3.680935  -3.654766  -3.928792  
0.0  101.685394  0.0  -2.617382  -24.201243  -97.609067  24.010444  -31.790358  -35.595761  6.562518  17.48015  61.341067  -3.022463  4.759227  1.535548  -11.519024  22.901845  -1.063454  2.040446  6.514935  33.490827  4.18859  4.542173  -8.33492  -0.422436  1.112012  3.07799  -1.011765  3.087551  8.399272  -1.011765  3.087551  8.399272  -6.24167  17.430101  2.212849  -130.411642  62.639355  -84.844802  -21.978961  -15.971206  98.863536  103.076954  27.595035  -16.888532  8.42898  -12.770233  14.317547  81.468771  26.580186  36.91976  -20.920438  15.619835  -90.315833  56.03161  0.619062  14.740114  4.910579  -4.67676  -5.216258  3.641208  -3.550029  -3.872666  
0.0  101.685394  0.0  -2.596643  -23.968308  -97.562135  23.681717  -31.858241  -35.568936  6.754446  17.6956  61.251785  -2.915774  4.769701  1.590108  -12.54167  23.182308  -1.401418  2.440951  6.412057  33.323191  4.521347  4.466021  -8.294164  -0.444579  1.061192  3.083833  -1.078368  2.951792  8.414653  -1.078367  2.951792  8.414653  -6.201004  17.55577  2.199321  -130.980565  62.558813  -85.164291  -22.097193  -15.846216  98.816471  103.062101  27.525958  -16.99858  8.835029  -12.67938  14.390549  81.435469  26.864587  36.947384  -20.820353  15.813005  -90.092655  56.145999  0.639453  14.839115  4.928874  -4.522561  -5.244074  3.656177  -3.434748  -3.894772  
